<svg width="15" height="21" viewBox="0 0 15 21" fill="none" xmlns="http://www.w3.org/2000/svg">
<path d="M14.6 0.4L13.8 4.2C13.8 4.4 13.6 4.6 13.4 4.6H6.7C5.7 4.6 4.8 5.4 4.8 6.5V7.3C4.8 8.3 5.6 9.2 6.7 9.2H12.4C12.5 9.2 12.6 9.3 12.7 9.3C12.7 9.4 12.8 9.5 12.8 9.6C12.7 10.2 12.1 13.1 12 13.5C12 13.6 11.8 13.8 11.6 13.8H4.1C3.8 13.8 3.6 14 3.6 14.3C3.6 14.6 3.8 14.8 4.1 14.8H4.8C4.2 15.5 1.4 19.1 0 20.9V0.4C0 0.2 0.2 0 0.4 0H14.3C14.4 0 14.5 0.1 14.6 0.1C14.6 0.1 14.7 0.3 14.6 0.4Z" fill="black"/>
</svg>
